# xmcd
#
# Track frame offsets:
#   150
#   13826
#   26889
#   41776
#   55560
#   68990
#   82466
#   93462
#   105572
#   123008
#   136974
#   149572
#   163944
#   180416
#   193352
#   208019
#   225404
#   243457
#   258086
#   274456
#
# Disc length: 3867 seconds
#
# Revision: 0
# Processed by: cddbd v1.4PL0 Copyright (c) Steve Scherf et al.
# Submitted via: uFREEDB 1.6.0
#
DISCID=2c0f1914
DTITLE=Noel Petro, Anibal Velasquez - Se armo el fieston
DYEAR=2000
DGENRE=Blues
TTITLE0=Sal y agua
TTITLE1=Cabeza de hacha
TTITLE2=Caracoles de colores
TTITLE3=La reina de las cruces
TTITLE4=Aji picante
TTITLE5=La papaya
TTITLE6=Celos
TTITLE7=El revoliatico
TTITLE8=Guaracha en España
TTITLE9=La pata pela
TTITLE10=la bomba
TTITLE11=Las cerezas
TTITLE12=Me voy pa la china
TTITLE13=Yo sali del valle
TTITLE14=Las delgaditas
TTITLE15=La araña
TTITLE16=Remolinos
TTITLE17=El burro mocho
TTITLE18=Noche buena
TTITLE19=La vida cara
EXTD=
EXTT0=
EXTT1=
EXTT2=
EXTT3=
EXTT4=
EXTT5=
EXTT6=
EXTT7=
EXTT8=
EXTT9=
EXTT10=
EXTT11=
EXTT12=
EXTT13=
EXTT14=
EXTT15=
EXTT16=
EXTT17=
EXTT18=
EXTT19=
PLAYORDER=
